/* XPM */
static char *martkist32[] = {
/* columns rows colors chars-per-pixel */
"32 32 178 2 ",
"   c None",
".  c #5F4CBE",
"X  c #5E5BBE",
"o  c #604DBF",
"O  c #6150BF",
"+  c #605DBF",
"@  c #5F61BE",
"#  c #5F6BBE",
"$  c #5F73BE",
"%  c #5F7BBE",
"&  c #6063BF",
"*  c #616BBF",
"=  c #6171BF",
"-  c #617ABF",
";  c #635EC0",
":  c #6D5FC4",
">  c #705CC5",
",  c #6766C1",
"<  c #696CC2",
"1  c #6679C1",
"2  c #6A7AC3",
"3  c #6773C2",
"4  c #7E76CB",
"5  c #7E7ECB",
"6  c #7474C7",
"7  c #807BCC",
"8  c #5F84BE",
"9  c #5F8BBE",
"0  c #5F93BE",
"q  c #5F9BBE",
"w  c #6186BF",
"e  c #618CBF",
"r  c #6095BF",
"t  c #619CBF",
"y  c #5EA2BE",
"u  c #5FAFBF",
"i  c #5FB4BE",
"p  c #5FBABF",
"a  c #60A3BF",
"s  c #61ACBF",
"d  c #60B2BF",
"f  c #6E87C4",
"g  c #6A8CC3",
"h  c #6487C0",
"j  c #7287C6",
"k  c #7983C9",
"l  c #6890C2",
"z  c #6A9DC3",
"x  c #6599C1",
"c  c #7291C6",
"v  c #7B97C9",
"b  c #779BC8",
"n  c #729CC6",
"m  c #5FBDC0",
"M  c #60AFC0",
"N  c #6DA6C4",
"B  c #72AEC6",
"V  c #7DABCA",
"C  c #7CA3CA",
"Z  c #63B3C1",
"A  c #6AB4C3",
"S  c #61BCC1",
"D  c #6CBBC4",
"F  c #74BAC7",
"G  c #78BEC9",
"H  c #5FC3C1",
"J  c #5FC9C2",
"K  c #61C3C2",
"L  c #6AC3C4",
"P  c #62CAC3",
"I  c #6CCAC7",
"U  c #75C4C8",
"Y  c #7CC4CA",
"T  c #72CBC9",
"R  c #7CCCCC",
"E  c #7BD2CD",
"W  c #75D2CA",
"Q  c #8596CE",
"!  c #869CCE",
"~  c #9C8DD7",
"^  c #8D96D1",
"/  c #9698D4",
"(  c #9694D4",
")  c #A79EDB",
"_  c #84A6CD",
"`  c #81ABCC",
"'  c #86B0CE",
"]  c #89B2CF",
"[  c #82B8CC",
"{  c #88B9CF",
"}  c #8DA4D1",
"|  c #97A4D5",
" . c #9AAAD6",
".. c #8CB6D0",
"X. c #9CB5D7",
"o. c #90BFD2",
"O. c #9FB2D8",
"+. c #91B6D2",
"@. c #A3A4DA",
"#. c #ABACDD",
"$. c #ABA5DD",
"%. c #B1AADF",
"&. c #A2B0DA",
"*. c #A8B0DC",
"=. c #AFBBDF",
"-. c #A4BADA",
";. c #C1BEE6",
":. c #84C6CD",
">. c #82D2CF",
",. c #8ACCD0",
"<. c #8FC3D1",
"1. c #95C2D4",
"2. c #9ACAD6",
"3. c #86D5D1",
"4. c #8CD0D2",
"5. c #91D1D3",
"6. c #98D1D6",
"7. c #91DCD6",
"8. c #9ED3D8",
"9. c #9BDBD8",
"0. c #A7C1DB",
"q. c #AFC7DF",
"w. c #A4CEDA",
"e. c #B1C3DF",
"r. c #B0C9DF",
"t. c #A0D3D9",
"y. c #A6D8DB",
"u. c #ACDBDE",
"i. c #9BE0D9",
"p. c #A9E3DF",
"a. c #B3C6E0",
"s. c #B8C8E2",
"d. c #B4D0E1",
"f. c #BBD3E3",
"g. c #B7DFE2",
"h. c #BBDEE4",
"j. c #AFE1E0",
"k. c #B3E3E2",
"l. c #BEE4E5",
"z. c #BDE8E6",
"x. c #B5E9E3",
"c. c #C4C7E7",
"v. c #C1CBE6",
"b. c #C7CDE8",
"n. c #CDCFEB",
"m. c #C1DAE6",
"M. c #CCD3EB",
"N. c #CEDBEB",
"B. c #D3DFED",
"V. c #D1D3ED",
"C. c #DED9F2",
"Z. c #E2DFF3",
"A. c #C3E0E7",
"S. c #C1E8E7",
"D. c #C6E4E8",
"F. c #CAE2EA",
"G. c #CCEBEB",
"H. c #C6EDE9",
"J. c #D7E7EF",
"K. c #D8E5EF",
"L. c #D5EDEE",
"P. c #CEF0ED",
"I. c #DFE0F2",
"U. c #DCEBF1",
"Y. c #DCF2F1",
"T. c #E2E4F3",
"R. c #E5EBF5",
"E. c #EBEDF7",
"W. c #EEEFF8",
"Q. c #E3F4F4",
"!. c #EAF5F7",
"~. c #E7F8F6",
"^. c #EBF8F7",
"/. c #EEF6F8",
"(. c #EFFAF9",
"). c #F5F5FB",
"_. c #F5FAFB",
"`. c #FEFFFF",
/* pixels */
"                                                                ",
"                `.`.`.                      `.`.`.              ",
"                `.`.`.`.                    `.`.`.`.            ",
"              `.`.z._.`.                  `._.z._.`.            ",
"              `._.3.G.`.                  `.Y.E ~.`.            ",
"              `.Y.P 8.`.`.              `.`.y.P P.`.            ",
"              `.x.J G /.`.              `.!.U J k.`.            ",
"            `.`.7.P Z A.`.            `.`.g.S P 7.`.`.          ",
"            `.(.W P i 1.`.`.          `._.:.p P E (.`.          ",
"            `.G.P P M B Q.`.          `.F.Z S P P Y.`.          ",
"          `.`.p.J P Z q f.`.`.      `.`.1.i K K P z.`.          ",
"          `._.3.J J Z q ..`.`.      `.U.N s S P K 9.`.`.        ",
"          `.Q.I K K M 0 z U.`.    `.`.0.t d S K K >._.`.        ",
"          `.S.K K K m x 0 a.`.`.  `.E.b t d S K K I ~.`.        ",
"        `.`.9.H K H D l 9 _ _.`.`.`.s.h t Z L K S K H.`.        ",
"        `._.R H K H 8._ 9 l B.`.`.).Q 9 q <.6.m S m u.`.`.      ",
"        `.L.L K S S F.a.9 8 -.`.`.n.1 w x F.h.Z m m 4.`.`.      ",
"        `.k.H K S F /.U.g % v ).`./ $ w V _.U.A S m U /.`.      ",
"      `.`.4.H d M o.`.`.} % h M.Z.< = w d.`./.V i S S L.`.      ",
"      `.!.U d Z a d.`.`.s.- %  .) + $ c R.`.`.+.y S Z g.`.      ",
"      `.G.S S a z K.`.`.R.j - 2 : + $ O.`.`.`.r.r d d 6.`.`.    ",
"    `.`.y.S s r C ).Q.(.`.| $ * ; + 2 C.`.Y._.N.h t d Y _.`.    ",
"    `.`.:.d t 9 X.`.p.H.`.b.3 * o O ^ _.`.i.~.E.c w a D Q.`.    ",
"    `.Y.D y w w v.`.3.9.`.E.k # o ; c.`.Y.T P._.! % r s m.`.    ",
"    `.A.s w - f R./.T T /.`.@.@ . 4 ).`.k.J j.`.&.$ - q w.`.`.  ",
"  `.`.2.q % % Q _.G.S K D.`.V., o %.`._.,.m 5.`.c.= * 8 { `.`.  ",
"  `._.V % = # #.`.u.p p 6.`.).7 : Z.`.Y.D p Y _.I.3 * * n R.`.  ",
"  `.J.h * # , M.`.,.i d G !.`.$.~ `.`.u.i d A Y.).5 @ + 1 K.`.  ",
"`.`.a.* @ @ 6 E.!.B y y a m.`.T.Z.`.).[ a a a m.`.( X + X =.`.`.",
"`.`.#.7 7 5 ) `.R.` ` ` V a.`.`.`.`.R...` ` ` s.`.;.7 7 4 #.`.`.",
"`.`._.).).)._.`.`._._._._._.`.`.`.`.`._._._.)._.`.`.).).)._.`.`.",
"  `.`.`.`.`.`.`.`.`.`.`.`.`.`.      `.`.`.`.`.`.`.`.`.`.`.`.`.  "
};
