/* XPM */
static char *martkist64[] = {
/* columns rows colors chars-per-pixel */
"64 64 198 2 ",
"   c None",
".  c #5F4CBE",
"X  c #5F44BE",
"o  c #5E54BE",
"O  c #5F5CBE",
"+  c #6046BF",
"@  c #614CBF",
"#  c #6057BF",
"$  c #615BBF",
"%  c #5F63BE",
"&  c #5F6BBE",
"*  c #5F73BE",
"=  c #5F7CBE",
"-  c #6164BF",
";  c #616CBF",
":  c #6174BF",
">  c #617BBF",
",  c #644FC0",
"<  c #6555C1",
"1  c #7159C6",
"2  c #646BC0",
"3  c #6A65C3",
"4  c #6574C1",
"5  c #657EC1",
"6  c #6B77C3",
"7  c #7572C7",
"8  c #767CC8",
"9  c #736CC6",
"0  c #806ECC",
"q  c #847ACD",
"w  c #8C7CD0",
"e  c #5F83BE",
"r  c #5F8BBE",
"t  c #5F95BE",
"y  c #5F9BBE",
"u  c #6183BF",
"i  c #618CBF",
"p  c #6194BF",
"a  c #619BBF",
"s  c #5FA3BE",
"d  c #5FABBE",
"f  c #5FB3BE",
"g  c #5FBABF",
"h  c #61A2BF",
"j  c #61ABBF",
"k  c #61B4BF",
"l  c #60B8BF",
"z  c #658BC0",
"x  c #6B8DC3",
"c  c #6884C2",
"v  c #7182C5",
"b  c #728BC6",
"n  c #7B82CA",
"m  c #6593C1",
"M  c #669BC1",
"N  c #6D9BC4",
"B  c #6B94C3",
"V  c #7390C6",
"C  c #7993C9",
"Z  c #759DC7",
"A  c #5FBDC0",
"S  c #64A4C0",
"D  c #63ACC0",
"F  c #6BAAC3",
"G  c #6AA2C3",
"H  c #72A4C6",
"J  c #73AAC6",
"K  c #77ABC8",
"L  c #7AA8C9",
"P  c #61B4C0",
"I  c #6CB4C3",
"U  c #61BCC0",
"Y  c #6BBCC4",
"T  c #73BEC6",
"R  c #7BB4CA",
"E  c #7EBDCB",
"W  c #73B3C6",
"Q  c #5FC4C1",
"!  c #5FCBC3",
"~  c #61C3C2",
"^  c #6CC5C6",
"/  c #61CAC3",
"(  c #6CCDC7",
")  c #6DCEC8",
"_  c #70C9C7",
"`  c #74C3C8",
"'  c #7AC3CA",
"]  c #7BCBCB",
"[  c #72CBC9",
"{  c #68D3C7",
"}  c #67D1C6",
"|  c #75D3CB",
" . c #7BD3CD",
".. c #7BD9CE",
"X. c #828BCC",
"o. c #8482CD",
"O. c #8393CD",
"+. c #869ACE",
"@. c #948CD4",
"#. c #9087D2",
"$. c #8D9CD1",
"%. c #9492D4",
"&. c #949DD4",
"*. c #A090D9",
"=. c #83A5CD",
"-. c #85B5CE",
";. c #83BDCD",
":. c #8DA5D1",
">. c #96A9D4",
",. c #8BB4D0",
"<. c #94B4D4",
"1. c #9AB6D6",
"2. c #94BDD4",
"3. c #A4A2DA",
"4. c #A8A9DC",
"5. c #A3B4DA",
"6. c #AABADC",
"7. c #B1BADF",
"8. c #B3A9E0",
"9. c #B7BDE2",
"0. c #B6B3E2",
"q. c #84CBCE",
"w. c #88C6CF",
"e. c #81D0CF",
"r. c #8CC2D1",
"t. c #8BCCD1",
"y. c #94C6D4",
"u. c #93CED4",
"i. c #9ACED6",
"p. c #9FC5D8",
"a. c #8BD3D2",
"s. c #8DDBD4",
"d. c #83D8D0",
"f. c #94D5D5",
"g. c #9AD2D6",
"h. c #93DCD6",
"j. c #9FD5D9",
"k. c #99DBD8",
"l. c #A0C2D9",
"z. c #ABC6DD",
"x. c #A4CADA",
"c. c #ABCFDD",
"v. c #B0C8DF",
"b. c #A4DCDB",
"n. c #ADDBDE",
"m. c #A7D1DB",
"M. c #B0D5DF",
"N. c #9DE2DB",
"B. c #A8E3DE",
"V. c #BBCBE4",
"C. c #B7C4E2",
"Z. c #AFDFE0",
"A. c #B4D4E1",
"S. c #BCD3E4",
"D. c #B3DCE0",
"F. c #BBDCE3",
"G. c #B4E4E2",
"H. c #BCE3E4",
"J. c #B4E8E3",
"K. c #BDEAE6",
"L. c #C2C6E6",
"P. c #CAC4EA",
"I. c #CACCEA",
"U. c #C3CFE7",
"Y. c #C3D7E7",
"T. c #C9D4E9",
"R. c #CBDCEA",
"E. c #C5D6E8",
"W. c #D6D4EE",
"Q. c #D3DAED",
"!. c #DBDCF0",
"~. c #E3DEF4",
"^. c #C2E2E6",
"/. c #C6E2E8",
"(. c #CCE5EA",
"). c #C3EBE8",
"_. c #C9EBEA",
"`. c #D4E4EE",
"'. c #D3EDEE",
"]. c #D8E8EF",
"[. c #D5F1EF",
"{. c #DCE4F1",
"}. c #DCECF1",
"|. c #DDF3F2",
" X c #D6F3F0",
".X c #E2E3F3",
"XX c #E5EDF4",
"oX c #E9EBF6",
"OX c #E8E5F6",
"+X c #E4F3F4",
"@X c #EAF4F7",
"#X c #EAF8F7",
"$X c #EEF4F8",
"%X c #EEF9F8",
"&X c #E7F8F6",
"*X c #F3F5FA",
"=X c #F4FAFA",
"-X c #FFFFFF",
/* pixels */
"                                                                                                                                ",
"                                                                                                                                ",
"                                  -X-X-X-X-X                                              -X-X-X-X-X                            ",
"                                -X-X-X-X-X-X-X                                          -X-X-X-X-X-X-X                          ",
"                              -X-X-X-X-X-X-X-X                                        -X-X-X-X-X-X-X-X                          ",
"                              -X-X-X-X%X-X-X-X                                        -X-X-X-X=X-X-X-X                          ",
"                              -X-X-X|.G.-X-X-X-X                                    -X-X-X-X[.K.-X-X-X-X                        ",
"                              -X-X-XK.] =X-X-X-X                                    -X-X-X-Xk.s.-X-X-X-X                        ",
"                            -X-X-X-XN.Q (.-X-X-X-X                                  -X-X-X+X_  .=X-X-X-X                        ",
"                            -X-X-X=X..Q g.-X-X-X-X                                -X-X-X-Xn.~ {  X-X-X-X                        ",
"                            -X-X-X X{ ! T &X-X-X-X                                -X-X-X=X] Q ! K.-X-X-X                        ",
"                          -X-X-X-XJ.! ! P Y.-X-X-X-X                            -X-X-X-X).U / ! N.-X-X-X-X                      ",
"                          -X-X-X=Xs.} ! k t.-X-X-X-X                            -X-X-X-Xt.g / ! d.=X-X-X-X                      ",
"                          -X-X-X&X| ! ! j I XX-X-X-X                          -X-X-X-X'.Y g / / ) &X-X-X-X                      ",
"                          -X-X-X_.} ! / P j F.-X-X-X-X                        -X-X-X-Xm.g U / ! / _.-X-X-X                      ",
"                        -X-X-X-XB.! / / P d ;.=X-X-X-X                        -X-X-X+XT g A / / / B.-X-X-X-X                    ",
"                        -X-X-X=Xd./ / / l j F ].-X-X-X                      -X-X-X-XM.l l ~ / / / s.-X-X-X-X                    ",
"                        -X-X-X|.{ / / / U h h m.-X-X-X-X                    -X-X-X=X;.l l l / / / | #X-X-X-X                    ",
"                      -X-X-X-XK./ / / / U h s R =X-X-X-X                  -X-X-X-X/.j l l ~ / / Q ( [.-X-X-X                    ",
"                      -X-X-X-Xk./ / / / U h S S (.-X-X-X-X                -X-X-X=X2.j l l ~ / ~ / / G.-X-X-X                    ",
"                      -X-X-X=X .Q / / / U M s y p.-X-X-X-X              -X-X-X-X].F j l U / / ~ / Q k.-X-X-X-X                  ",
"                      -X-X-X[./ ! / / Q ~ S S y K $X-X-X-X              -X-X-X-Xl.h j l l ~ ~ / / Q  .=X-X-X-X                  ",
"                    -X-X-X-XG.Q / / / / Q y y y a Y.-X-X-X-X            -X-X-X@XH h j l l ~ ~ / ~ Q ) +X-X-X-X                  ",
"                    -X-X-X-Xs.~ ~ ~ ~ ~ ~ S y M t 2.-X-X-X-X          -X-X-X-Xv.a h j l U ~ ~ ~ ~ ~ ~ ).-X-X-X                  ",
"                    -X-X-X&X[ ~ ~ ~ / ~ Q S a a y G XX-X-X-X          -X-X-X*X=.p h j l l ~ ~ ~ ~ ~ Q b.-X-X-X-X                ",
"                    -X-X-X_./ ~ / ~ / ~ Q S t m t m S.-X-X-X-X      -X-X-X-XE.m a h j l l ~ ~ ~ ~ ~ Q a.-X-X-X-X                ",
"                  -X-X-X-Xb.Q ~ ~ ~ ~ ~ ~ S p p p t ,.=X-X-X-X      -X-X-X=X:.p p h h k U ~ ~ ~ ~ ~ ~ _ +X-X-X-X                ",
"                  -X-X-X=Xe.Q ~ ~ / Q ~ Q S p p p i N {.-X-X-X    -X-X-X-X{.x i a h j k U / ~ ~ ~ ~ U / '.-X-X-X                ",
"                  -X-X-X|.^ ~ ~ / ~ ~ ~ ~ D m t z t r z.-X-X-X-X  -X-X-X-X5.u i a h j k l ~ ~ ~ ~ ~ ~ Q Z.-X-X-X-X              ",
"                -X-X-X-XK.~ ~ ~ ~ U ~ ~ Q r.m t p i i =.=X-X-X-X-X-X-X-XoXb u i p h j T q.Q U ~ ~ U U A f.-X-X-X-X              ",
"                -X-X-X-Xf.A ~ ~ ~ ~ ~ ~ ~ (.=.r i i i m Q.-X-X-X-X-X-X-X9.> u i p h d i.^.U ~ U ~ ~ ~ A ' %X-X-X-X              ",
"                -X-X-X%X] ~ ~ U ~ U ~ A ' *XC.r i i i e 6.-X-X-X-X-X-X*XO.= u i a a D (.+XY ~ U U U ~ U ^ |.-X-X-X              ",
"                -X-X-X[.^ ~ U ~ ~ ~ ~ g i.-X}.B i i i e Z $X-X-X-X-X-XI.4 : u i p h ;.=X=XE A U U ~ U U U K.-X-X-X              ",
"              -X-X-X-Xn.l U ~ ~ U U U j F.-X=X:.e u i i c T.-X-X-X-X-X%.& > u i a a S.-X-Xy.f U U U ~ U U k.-X-X-X-X            ",
"              -X-X-X-Xt.l ~ ~ U U ~ P I }.-X-XV.u u u u e >.-X-X-X-X!.4 ; > u i p K @X-X-XA.j U U U U U g q.=X-X-X-X            ",
"              -X-X-X&X_ l ~ U U U U j ;.=X-X-XOXV u u u u V OX-X-X-X3.- ; > u i p x.-X-X-X`.G j U U U U l ` +X-X-X-X            ",
"              -X-X-X_.U ~ U U U U P s x.-X-X-X-X>.e e = u u V.-X-XOX7 - ; > u i N }.-X-X-X&XJ y U U U U l U _.-X-X-X            ",
"            -X-X-X-Xb.g l U l ~ P s S R.-X-X-X-XE.c > u > = :.-X-X0.$ - ; > u e <.-X-X-X-X-X,.y S U l U U l n.-X-X-X-X          ",
"            -X-X-X=Xq.g l U U U D a F @X-X-X-X-XoXC = > > > c {.=Xq O - ; : u z R.-X-X-X-X-Xz.t y A P U U g t.-X-X-X-X          ",
"            -X-X-X|.Y g U U l P y M ,.=X-X-X-X-X-X5.= > > 5 > 9.P., $ - ; > > =.=X-X-X-X-X-XR.p t S P U P l ' $X-X-X-X          ",
"          -X-X-X-XH.l l l l l a a t v.-X-X-X-X-X-XQ.5 = : > = O.w @ $ - ; : u V.-X-X-X-X-X-XXXN p p k l l l Y '.-X-X-X          ",
"          -X-X-X-Xg.g l U l D p p M `.-X-X-X-X-X-X=XO.* > : : 4 , , $ - ; = V oX-X-X-X-X-X-X=X=.i i a l l l l D.-X-X-X          ",
"          -X-X-X%X' l l U P a p i L *X-X-X|.-X-X-X-X6.4 : : : ; @ # # 3 ; : 5.-X-X-X-X|.-X-X-X1.i i i k l l f g.-X-X-X-X        ",
"          -X-X-X'.I l l l h i p r <.-X-X-XN.|.-X-X-X!.6 : : : ; @ @ o % ; 6 {.-X-X-X&XN.-X-X-XV.i u u a l k f w.=X-X-X-X        ",
"        -X-X-X-Xn.l l l j i i i z V.-X-X%X..J.-X-X-X=X+.; : : ; @ @ $ - & &.-X-X-X-XK.| &X-X-X{.x u u i j l k I +X-X-X-X        ",
"        -X-X-X-Xw.k l k a i i u B {.-X-X[./ s.-X-X-X-X9.: ; ; ; @ @ # - 2 I.-X-X-X-XN.} [.-X-X$XC > u u p k k k ^.-X-X-X        ",
"        -X-X-X+XT l l h i u u e +.=X-X-XJ.Q ( |.-X-X-XOX6 ; ; ; @ @ # $ X.*X-X-X-X&X[ Q J.-X-X-X:.> > > u j k d m.-X-X-X-X      ",
"        -X-X-X/.P l k p u u u u 5.-X-X-Xh.Q / G.-X-X-X=X&.; ; - @ @ # - 9.-X-X-X-XK./ ~ k.-X-X-X7.> > > : p j j r.=X-X-X-X      ",
"      -X-X-X-Xm.f f h u > u > c T.-X-X%X] Q Q a.=X-X-X-XP.2 - - @ @ o 7 oX-X-X-X-Xf.Q Q e.=X-X-XR.> > : : > h j W &X-X-X-X      ",
"      -X-X-X=X;.d d u > > > * b oX-X-X|.^ Q ~ ( |.-X-X-XoX8 & $ @ . o 3.-X-X-X-X+X( ~ ~ ( +X-X-XoXv : : : : i h D `.-X-X-X      ",
"      -X-X-X}.I d p > > : > * $.=X-X-XH.Q ~ ~ A G.-X-X-X-X>.% % + @ 1 !.-X-X-X-XG.U ~ U ~ (.-X-X=XO.: : : ; : a h M.-X-X-X-X    ",
"    -X-X-X-XF.d h > > : : : * 7.-X-X-Xg.g U U A q.-X-X-X-XI.2 3 + . @.=X-X-X-X-Xa.A ~ U U n.-X-X-X4.; ; : ; ; u h 2.-X-X-X-X    ",
"    -X-X-X-Xy.s i : : : : : 4 Q.-X-X=X] l U U U Y |.-X-X-X*X8 < + , P.-X-X-X-X+X^ l U U g f.=X-X-XL.; - ; ; 2 : a K *X-X-X-X    ",
"    -X-X-X$XR a : ; : ; ; & n *X-X-X|.Y l P l l P n.-X-X-X-X4.$ X 0 *X-X-X-X-XD.P U U l l ' =X-X-X!.6 ; - - - - > G }.-X-X-X    ",
"    -X-X-X`.S > ; ; ; ; 2 - &.-X-X-XY.l l l l l f w.=X-X-X-XW.3 + 8.-X-X-X-X-Xt.l k l l l I }.-X-X*X8 - - - - - ; p S.-X-X-X    ",
"  -X-X-X-Xc.i ; - ; - ; - 2 9.-X-X-Xg.k k k j k k I }.-X-X-X=Xq 1 OX-X-X-X-X}.I j k k j k j H.-X-X-X&.$ - - - $ $ > l.-X-X-X-X  ",
"  -X-X-X=X,.* - - ; - - - 9 {.-X-X=X;.s j j j j j h c.-X-X-X-X8.*.-X-X-X-X-XA.d j j j j h s x.-X-X-X0.$ - $ $ $ $ % =.=X-X-X-X  ",
"  -X-X-XXXb % & - - $ - O o.=X-X-X}.F h h h a h a a -.=X-X-X-XOX~.-X-X-X-X=X-.s a s a h h y ,.=X-X-XW.3 $ $ $ # # $ v XX-X-X-X  ",
"-X-X-X-XE.- O O $ O O O o 3.-X-X-XY.y t t t t p t t N `.-X-X-X-X-X-X-X-X-X].M y t t t t t t N @X-X-XOX9 o o o o o . $ I.-X-X-X  ",
"-X-X-X-XL.%.%.@.@.%.@.%.%.W.-X-X-XY.<.<.<.<.<.<.<.<.<.R.-X-X-X-X-X-X-X-X-XR.<.<.<.<.<.<.<.<.1.XX-X-X-X4.@.@.@.#.@.@.@.I.-X-X-X-X",
"-X-X-X-X-X-X-X-X-X-X-X-X-X-X-X-X-X-X-X-X-X-X-X-X-X-X-X-X-X-X-X-X-X-X-X-X-X-X-X-X-X-X-X-X-X-X-X-X-X-X-X-X-X-X-X-X-X-X-X-X-X-X-X  ",
"  -X-X-X-X-X-X-X-X-X-X-X-X-X-X-X-X-X-X-X-X-X-X-X-X-X-X-X-X-X-X-X-X-X-X-X-X-X-X-X-X-X-X-X-X-X-X-X-X-X-X-X-X-X-X-X-X-X-X-X-X-X-X  ",
"    -X-X-X-X-X-X-X-X-X-X-X-X-X-X-X-X-X-X-X-X-X-X-X-X-X-X-X-X          -X-X-X-X-X-X-X-X-X-X-X-X-X-X-X-X-X-X-X-X-X-X-X-X-X-X-X    ",
"      -X-X-X-X-X-X-X-X-X-X-X-X  -X-X-X-X-X-X-X-X-X-X-X-X-X              -X-X-X-X-X-X-X-X-X-X-X-X-X  -X-X-X-X-X-X-X-X-X-X-X      "
};
