/* XPM */
static char *martkist16[] = {
/* columns rows colors chars-per-pixel */
"16 16 162 2 ",
"   c None",
".  c #5C64BD",
"X  c #5B6EBD",
"o  c #635EC0",
"O  c #645CC0",
"+  c #6574C0",
"@  c #6F76C5",
"#  c #7A75C9",
"$  c #7778C8",
"%  c #8176CC",
"&  c #6082BE",
"*  c #5EA5BF",
"=  c #5DA6BE",
"-  c #5EAFBF",
";  c #5EB8BF",
":  c #5EBBBF",
">  c #61A7BF",
",  c #6582C1",
"<  c #6A81C3",
"1  c #6C8EC4",
"2  c #778BC8",
"3  c #6490C0",
"4  c #6493C0",
"5  c #669EC1",
"6  c #749AC7",
"7  c #7794C8",
"8  c #6BA7C3",
"9  c #64ABC1",
"0  c #6EAAC4",
"q  c #77ADC8",
"w  c #61B6C0",
"e  c #66B8C2",
"r  c #78B0C9",
"t  c #76B9C8",
"y  c #79B8C9",
"u  c #7ABBCA",
"i  c #5DC0C0",
"p  c #5FC0C0",
"a  c #5EC1C0",
"s  c #5FC4C1",
"d  c #62C3C2",
"f  c #66C2C3",
"g  c #62C7C3",
"h  c #69C2C4",
"j  c #6ECCC8",
"k  c #70C1C6",
"l  c #71C4C7",
"z  c #7EC3CB",
"x  c #70C9C8",
"c  c #76CBCA",
"v  c #7DCDCC",
"b  c #7FCDCD",
"n  c #879DCE",
"m  c #8A9DD0",
"M  c #9290D3",
"N  c #9391D3",
"B  c #909BD2",
"V  c #939FD3",
"C  c #949AD4",
"Z  c #9E9ED8",
"A  c #86A2CE",
"S  c #88BECF",
"D  c #9EA6D8",
"F  c #9ABAD6",
"G  c #ADAFDE",
"H  c #A3B5DA",
"J  c #BCB2E4",
"K  c #9ACED7",
"L  c #87D6D1",
"P  c #89D1D1",
"I  c #8DD6D3",
"U  c #93D0D4",
"Y  c #99D3D6",
"T  c #9FDCDA",
"R  c #A3C6DA",
"E  c #A5C5DB",
"W  c #A9C1DC",
"Q  c #A8C5DC",
"!  c #A6C9DB",
"~  c #A2D4DA",
"^  c #AAD6DD",
"/  c #A6DFDD",
"(  c #ABD8DD",
")  c #AAE3DF",
"_  c #B6C1E2",
"`  c #BBD5E3",
"'  c #B9D6E2",
"]  c #BDD0E4",
"[  c #BFD6E5",
"{  c #B9DFE3",
"}  c #BFD9E5",
"|  c #B7E0E2",
" . c #B7E1E2",
".. c #B3E5E2",
"X. c #B7E9E4",
"o. c #C1C0E6",
"O. c #C5C0E7",
"+. c #C0CEE5",
"@. c #CCCEEA",
"#. c #CFCFEC",
"$. c #C4D6E7",
"%. c #C3DBE7",
"&. c #C9DCE9",
"*. c #D2D3ED",
"=. c #C2E2E7",
"-. c #C3E6E7",
";. c #CDE5EB",
":. c #CFE4EC",
">. c #C3EAE8",
",. c #C3EDE8",
"<. c #C7EDEA",
"1. c #D2E0ED",
"2. c #D0E7ED",
"3. c #D0ECED",
"4. c #D3EDEE",
"5. c #DDE4F1",
"6. c #DFE8F2",
"7. c #D8EFF0",
"8. c #DAEFF0",
"9. c #DDEEF1",
"0. c #DDEFF1",
"q. c #DEF1F2",
"w. c #DEF5F3",
"e. c #E7EEF5",
"r. c #EEEEF8",
"t. c #EFEEF8",
"y. c #E1F5F4",
"u. c #EAF1F7",
"i. c #ECF1F7",
"p. c #E9F5F6",
"a. c #E9F7F7",
"s. c #EEF3F8",
"d. c #EDF4F8",
"f. c #ECF8F8",
"g. c #EDF9F8",
"h. c #F1F1F9",
"j. c #F1F0FA",
"k. c #F3F3FA",
"l. c #F1F5F9",
"z. c #F2F6FA",
"x. c #F7F5FC",
"c. c #F1F9F9",
"v. c #F4F8FB",
"b. c #F5F8FB",
"n. c #F5FBFB",
"m. c #F5FCFB",
"M. c #F7F8FC",
"N. c #F6FCFC",
"B. c #F7FDFC",
"V. c #F7FFFC",
"C. c #F9F9FD",
"Z. c #F9FBFD",
"A. c #FAFAFD",
"S. c #FAFBFD",
"D. c #F9FDFD",
"F. c #FAFDFD",
"G. c #FBFDFE",
"H. c #FDFDFE",
"J. c #FDFEFE",
"K. c #FEFEFE",
"L. c #FEFFFF",
"P. c white",
/* pixels */
"        P.            P.        ",
"        g.n.          f.N.      ",
"        ..3.        F./ w.      ",
"      B.L ~ P.      0.x <.      ",
"      y.j u d.    P.^ a )       ",
"      >.g 9 &.    u.y i I D.    ",
"    P.T s * F J.  ] > p c a.    ",
"    c.b d r 6 e.M.A 0 l f 4.    ",
"    7.h k [ 1 +.*., E K :  .    ",
"    | ; S z.n m N < 6.` - Y K.  ",
"  G.U = Q V._ + o V m.1.5 z c.  ",
"  p.t 3 $.X.5.@ O @.,.2.7 8 9.  ",
"  ;.4 2 :.v q.M % i.P -.B & %.  ",
"P.W X C =.w { O.J 8.e ( G . H P.",
"Z.D $ o.' q R k.x.} q ! #.# Z S.",
"H.h.r.C.b.s.l.L.P.v.s.z.A.t.j.H."
};
